<svg width="10" height="12" viewBox="0 0 10 12" fill="none" xmlns="http://www.w3.org/2000/svg">
<path d="M8.5 4.212V3.5C8.5 2.57174 8.13125 1.6815 7.47487 1.02513C6.8185 0.368749 5.92826 0 5 0C4.07174 0 3.1815 0.368749 2.52513 1.02513C1.86875 1.6815 1.5 2.57174 1.5 3.5V4.212C1.05468 4.40635 0.675646 4.72626 0.40925 5.13261C0.142853 5.53895 0.000639188 6.01412 0 6.5V9.5C0.000793929 10.1628 0.264441 10.7982 0.73311 11.2669C1.20178 11.7356 1.8372 11.9992 2.5 12H7.5C8.1628 11.9992 8.79822 11.7356 9.26689 11.2669C9.73556 10.7982 9.99921 10.1628 10 9.5V6.5C9.99936 6.01412 9.85715 5.53895 9.59075 5.13261C9.32435 4.72626 8.94532 4.40635 8.5 4.212ZM2.5 3.5C2.5 2.83696 2.76339 2.20107 3.23223 1.73223C3.70107 1.26339 4.33696 1 5 1C5.66304 1 6.29893 1.26339 6.76777 1.73223C7.23661 2.20107 7.5 2.83696 7.5 3.5V4H2.5V3.5ZM9 9.5C9 9.89782 8.84196 10.2794 8.56066 10.5607C8.27936 10.842 7.89782 11 7.5 11H2.5C2.10218 11 1.72064 10.842 1.43934 10.5607C1.15804 10.2794 1 9.89782 1 9.5V6.5C1 6.10217 1.15804 5.72064 1.43934 5.43934C1.72064 5.15803 2.10218 5 2.5 5H7.5C7.89782 5 8.27936 5.15803 8.56066 5.43934C8.84196 5.72064 9 6.10217 9 6.5V9.5Z" fill="#7455F7"/>
<path d="M5 7C4.86739 7 4.74021 7.05268 4.64645 7.14645C4.55268 7.24021 4.5 7.36739 4.5 7.5V8.5C4.5 8.63261 4.55268 8.75979 4.64645 8.85355C4.74021 8.94732 4.86739 9 5 9C5.13261 9 5.25979 8.94732 5.35355 8.85355C5.44732 8.75979 5.5 8.63261 5.5 8.5V7.5C5.5 7.36739 5.44732 7.24021 5.35355 7.14645C5.25979 7.05268 5.13261 7 5 7Z" fill="#7455F7"/>
</svg>
