<svg width="11" height="12" viewBox="0 0 11 12" fill="none" xmlns="http://www.w3.org/2000/svg">
<path fill-rule="evenodd" clip-rule="evenodd" d="M7.81718 0C9.72106 0 11 1.29764 11 3.22873V8.77127C11 10.7192 9.76042 11.9861 7.842 11.9982L3.18343 12C1.27955 12 0 10.7024 0 8.77127V3.22873C0 1.28016 1.23958 0.0138624 3.158 0.00241085L7.81657 0H7.81718ZM7.81718 0.904068L3.16102 0.906479C1.75128 0.914917 0.90834 1.78282 0.90834 3.22873V8.77127C0.90834 10.2268 1.75915 11.0959 3.18282 11.0959L7.83898 11.0941C9.24872 11.0857 10.0917 10.2166 10.0917 8.77127V3.22873C10.0917 1.77318 9.24145 0.904068 7.81718 0.904068ZM7.70036 8.12076C7.95107 8.12076 8.15453 8.32327 8.15453 8.5728C8.15453 8.82232 7.95107 9.02483 7.70036 9.02483H3.32822C3.07752 9.02483 2.87405 8.82232 2.87405 8.5728C2.87405 8.32327 3.07752 8.12076 3.32822 8.12076H7.70036ZM7.70036 5.59751C7.95107 5.59751 8.15453 5.80002 8.15453 6.04954C8.15453 6.29907 7.95107 6.50158 7.70036 6.50158H3.32822C3.07752 6.50158 2.87405 6.29907 2.87405 6.04954C2.87405 5.80002 3.07752 5.59751 3.32822 5.59751H7.70036ZM4.99636 3.0801C5.24706 3.0801 5.45053 3.28261 5.45053 3.53213C5.45053 3.78166 5.24706 3.98417 4.99636 3.98417H3.32804C3.07734 3.98417 2.87387 3.78166 2.87387 3.53213C2.87387 3.28261 3.07734 3.0801 3.32804 3.0801H4.99636Z" fill="#7455F7"/>
</svg>
