<svg width="10" height="13" viewBox="0 0 10 13" fill="none" xmlns="http://www.w3.org/2000/svg">
<path d="M5.00065 8.93779C6.62565 8.93779 7.91732 7.67837 7.91732 6.09395V2.84384C7.91732 1.25942 6.62565 0 5.00065 0C3.37565 0 2.08398 1.25942 2.08398 2.84384V6.09395C2.08398 7.67837 3.37565 8.93779 5.00065 8.93779ZM2.91732 2.84384C2.91732 1.7063 3.83398 0.812526 5.00065 0.812526C6.16732 0.812526 7.08398 1.7063 7.08398 2.84384V6.09395C7.08398 7.23148 6.16732 8.12526 5.00065 8.12526C3.83398 8.12526 2.91732 7.23148 2.91732 6.09395V2.84384Z" fill="#7455F7"/>
<path d="M10 6.09354H9.16667C9.16667 8.32798 7.29167 10.1562 5 10.1562C2.70833 10.1562 0.833333 8.32798 0.833333 6.09354H0C0 8.65299 2 10.7249 4.58333 10.9281V12.1875H3.33333C3.08333 12.1875 2.91667 12.35 2.91667 12.5937C2.91667 12.8375 3.08333 13 3.33333 13H6.66667C6.91667 13 7.08333 12.8375 7.08333 12.5937C7.08333 12.35 6.91667 12.1875 6.66667 12.1875H5.41667V10.9281C8 10.7249 10 8.65299 10 6.09354Z" fill="#7455F7"/>
</svg>
