<svg width="18" height="18" viewBox="0 0 18 18" fill="none" xmlns="http://www.w3.org/2000/svg">
<g clip-path="url(#clip0_2_347)">
<path d="M14.1452 13.3965H6.99718L6.58213 11.7363H15.9543L18 3.55371H4.53649L3.82788 0.719238H0V1.89346H2.91108L5.8012 13.4538C4.95559 13.6637 4.32682 14.4289 4.32682 15.3385C4.32682 16.4094 5.19803 17.2806 6.26889 17.2806C7.33971 17.2806 8.21095 16.4094 8.21095 15.3385C8.21118 15.0744 8.1572 14.8131 8.05236 14.5707H12.3617C12.2569 14.8131 12.2029 15.0744 12.2031 15.3385C12.2031 16.4094 13.0743 17.2806 14.1452 17.2806C15.216 17.2806 16.0873 16.4094 16.0873 15.3385C16.0872 14.2678 15.216 13.3965 14.1452 13.3965ZM10.0909 10.5621H8.78727L8.49603 8.23209H10.0909V10.5621H10.0909ZM14.4813 4.72789H16.4961L15.9136 7.05788H14.19L14.4813 4.72789ZM14.0433 8.23213H15.62L15.0376 10.5621H13.752L14.0433 8.23213ZM11.265 4.72789H13.2979L13.0067 7.05788H11.2651L11.265 4.72789ZM11.265 8.23209H12.8599L12.5687 10.5621H11.2651L11.265 8.23209ZM10.0909 4.72789V7.05788H8.34926L8.05802 4.72789H10.0909ZM4.83005 4.72789H6.87466L7.1659 7.05788H5.41255L4.83005 4.72789ZM5.70611 8.23209H7.31271L7.60395 10.5621H6.28861L5.70611 8.23209ZM6.26889 16.1065C5.8455 16.1065 5.50104 15.762 5.50104 15.3386C5.50104 14.9152 5.8455 14.5707 6.26889 14.5707C6.69227 14.5707 7.03673 14.9152 7.03673 15.3386C7.03673 15.762 6.69227 16.1065 6.26889 16.1065ZM14.1452 16.1065C13.7218 16.1065 13.3773 15.762 13.3773 15.3386C13.3773 14.9152 13.7218 14.5707 14.1452 14.5707C14.5685 14.5707 14.913 14.9152 14.913 15.3386C14.913 15.762 14.5685 16.1065 14.1452 16.1065Z" fill="#F9F4FF"/>
</g>
<defs>
<clipPath id="clip0_2_347">
<rect width="18" height="18" fill="white"/>
</clipPath>
</defs>
</svg>
